HIERARCHY
ROOT hip
{
  OFFSET -0.240055 89.6834 0.190372
  CHANNELS 6 Xposition Yposition Zposition Zrotation Xrotation Yrotation
  JOINT abdomen
  {
    OFFSET 0 7.2397 0
    CHANNELS 6 Xposition Yposition Zposition Zrotation Xrotation Yrotation
    JOINT chest
    {
      OFFSET 0 16.546 0
      CHANNELS 6 Xposition Yposition Zposition Zrotation Xrotation Yrotation
      JOINT neck
      {
        OFFSET 0 34.2149 0
        CHANNELS 6 Xposition Yposition Zposition Zrotation Xrotation Yrotation
        JOINT head
        {
          OFFSET 0 6.2923 0
          CHANNELS 6 Xposition Yposition Zposition Zrotation Xrotation Yrotation
          End Site
          {
            OFFSET 0 21.2161 0
          }
        }
      }
      JOINT lCollar
      {
        OFFSET 4.0639 26.6115 -1.1234
        CHANNELS 6 Xposition Yposition Zposition Zrotation Xrotation Yrotation
        JOINT lShldr
        {
          OFFSET 14.1772 0 0
          CHANNELS 6 Xposition Yposition Zposition Zrotation Xrotation Yrotation
          JOINT lForeArm
          {
            OFFSET 26.1234 0 0
            CHANNELS 6 Xposition Yposition Zposition Zrotation Xrotation Yrotation
            JOINT lHand
            {
              OFFSET 27.7188 0 0
              CHANNELS 6 Xposition Yposition Zposition Zrotation Xrotation Yrotation
              JOINT lThumb1
              {
                OFFSET 2.2979 -0.4685 1.8313
                CHANNELS 6 Xposition Yposition Zposition Zrotation Xrotation Yrotation
                JOINT lThumb2
                {
                  OFFSET 5.2953 0 0
                  CHANNELS 6 Xposition Yposition Zposition Zrotation Xrotation Yrotation
                  JOINT lThumb3
                  {
                    OFFSET 3.0181 0 0
                    CHANNELS 6 Xposition Yposition Zposition Zrotation Xrotation Yrotation
                    End Site
                    {
                      OFFSET 2.6294 0 0
                    }
                  }
                }
              }
              JOINT lIndex1
              {
                OFFSET 9.3793 0.2991 2.5924
                CHANNELS 6 Xposition Yposition Zposition Zrotation Xrotation Yrotation
                JOINT lIndex2
                {
                  OFFSET 4.3461 0 0
                  CHANNELS 6 Xposition Yposition Zposition Zrotation Xrotation Yrotation
                  JOINT lIndex3
                  {
                    OFFSET 2.1666 0 0
                    CHANNELS 6 Xposition Yposition Zposition Zrotation Xrotation Yrotation
                    End Site
                    {
                      OFFSET 2.2048 0 0
                    }
                  }
                }
              }
              JOINT lMid1
              {
                OFFSET 9.4769 0.8376 0.2947
                CHANNELS 6 Xposition Yposition Zposition Zrotation Xrotation Yrotation
                JOINT lMid2
                {
                  OFFSET 4.772 0 0
                  CHANNELS 6 Xposition Yposition Zposition Zrotation Xrotation Yrotation
                  JOINT lMid3
                  {
                    OFFSET 2.8722 0 0
                    CHANNELS 6 Xposition Yposition Zposition Zrotation Xrotation Yrotation
                    End Site
                    {
                      OFFSET 2.0959 0 0
                    }
                  }
                }
              }
              JOINT lRing1
              {
                OFFSET 8.6586 1.0176 -1.7016
                CHANNELS 6 Xposition Yposition Zposition Zrotation Xrotation Yrotation
                JOINT lRing2
                {
                  OFFSET 4.5461 0 0
                  CHANNELS 6 Xposition Yposition Zposition Zrotation Xrotation Yrotation
                  JOINT lRing3
                  {
                    OFFSET 2.506 0 0
                    CHANNELS 6 Xposition Yposition Zposition Zrotation Xrotation Yrotation
                    End Site
                    {
                      OFFSET 2.2023 0 0
                    }
                  }
                }
              }
              JOINT lPinky1
              {
                OFFSET 7.6901 0.6618 -3.9096
                CHANNELS 6 Xposition Yposition Zposition Zrotation Xrotation Yrotation
                JOINT lPinky2
                {
                  OFFSET 3.2119 0 0
                  CHANNELS 6 Xposition Yposition Zposition Zrotation Xrotation Yrotation
                  JOINT lPinky3
                  {
                    OFFSET 1.924 0 0
                    CHANNELS 6 Xposition Yposition Zposition Zrotation Xrotation Yrotation
                    End Site
                    {
                      OFFSET 1.7829 0 0
                    }
                  }
                }
              }
            }
          }
        }
      }
      JOINT rCollar
      {
        OFFSET -4.0677 26.6109 -1.1234
        CHANNELS 6 Xposition Yposition Zposition Zrotation Xrotation Yrotation
        JOINT rShldr
        {
          OFFSET -14.1772 0 0
          CHANNELS 6 Xposition Yposition Zposition Zrotation Xrotation Yrotation
          JOINT rForeArm
          {
            OFFSET -26.1234 0 0
            CHANNELS 6 Xposition Yposition Zposition Zrotation Xrotation Yrotation
            JOINT rHand
            {
              OFFSET -27.7188 0 0
              CHANNELS 6 Xposition Yposition Zposition Zrotation Xrotation Yrotation
              JOINT rThumb1
              {
                OFFSET -2.2979 -0.4684 1.8313
                CHANNELS 6 Xposition Yposition Zposition Zrotation Xrotation Yrotation
                JOINT rThumb2
                {
                  OFFSET -5.2953 0 0
                  CHANNELS 6 Xposition Yposition Zposition Zrotation Xrotation Yrotation
                  JOINT rThumb3
                  {
                    OFFSET -3.0181 0 0
                    CHANNELS 6 Xposition Yposition Zposition Zrotation Xrotation Yrotation
                    End Site
                    {
                      OFFSET -2.6294 0 0
                    }
                  }
                }
              }
              JOINT rIndex1
              {
                OFFSET -9.3793 0.2991 2.5924
                CHANNELS 6 Xposition Yposition Zposition Zrotation Xrotation Yrotation
                JOINT rIndex2
                {
                  OFFSET -4.3461 0 0
                  CHANNELS 6 Xposition Yposition Zposition Zrotation Xrotation Yrotation
                  JOINT rIndex3
                  {
                    OFFSET -2.1666 0 0
                    CHANNELS 6 Xposition Yposition Zposition Zrotation Xrotation Yrotation
                    End Site
                    {
                      OFFSET -2.2048 0 0
                    }
                  }
                }
              }
              JOINT rMid1
              {
                OFFSET -9.4769 0.8376 0.2947
                CHANNELS 6 Xposition Yposition Zposition Zrotation Xrotation Yrotation
                JOINT rMid2
                {
                  OFFSET -4.772 0 0
                  CHANNELS 6 Xposition Yposition Zposition Zrotation Xrotation Yrotation
                  JOINT rMid3
                  {
                    OFFSET -2.8722 0 0
                    CHANNELS 6 Xposition Yposition Zposition Zrotation Xrotation Yrotation
                    End Site
                    {
                      OFFSET -2.0959 0 0
                    }
                  }
                }
              }
              JOINT rRing1
              {
                OFFSET -8.6586 1.0176 -1.7016
                CHANNELS 6 Xposition Yposition Zposition Zrotation Xrotation Yrotation
                JOINT rRing2
                {
                  OFFSET -4.5461 0 0
                  CHANNELS 6 Xposition Yposition Zposition Zrotation Xrotation Yrotation
                  JOINT rRing3
                  {
                    OFFSET -2.506 0 0
                    CHANNELS 6 Xposition Yposition Zposition Zrotation Xrotation Yrotation
                    End Site
                    {
                      OFFSET -2.2023 0 0
                    }
                  }
                }
              }
              JOINT rPinky1
              {
                OFFSET -7.6901 0.6618 -3.9096
                CHANNELS 6 Xposition Yposition Zposition Zrotation Xrotation Yrotation
                JOINT rPinky2
                {
                  OFFSET -3.2119 0 0
                  CHANNELS 6 Xposition Yposition Zposition Zrotation Xrotation Yrotation
                  JOINT rPinky3
                  {
                    OFFSET -1.924 0 0
                    CHANNELS 6 Xposition Yposition Zposition Zrotation Xrotation Yrotation
                    End Site
                    {
                      OFFSET -1.7829 0 0
                    }
                  }
                }
              }
            }
          }
        }
      }
    }
  }
  JOINT lThigh
  {
    OFFSET 8.7379 -0.0029 0.0005
    CHANNELS 6 Xposition Yposition Zposition Zrotation Xrotation Yrotation
    JOINT lShin
    {
      OFFSET 0 -46.6676 0
      CHANNELS 6 Xposition Yposition Zposition Zrotation Xrotation Yrotation
      JOINT lFoot
      {
        OFFSET 0 -40.1476 0
        CHANNELS 6 Xposition Yposition Zposition Zrotation Xrotation Yrotation
        JOINT lToes
        {
          OFFSET 0 -8.8846 14.2294
          CHANNELS 6 Xposition Yposition Zposition Zrotation Xrotation Yrotation
          End Site
          {
            OFFSET 0 0 6.296
          }
        }
      }
    }
  }
  JOINT rThigh
  {
    OFFSET -8.7379 0.0029 -0.0005
    CHANNELS 6 Xposition Yposition Zposition Zrotation Xrotation Yrotation
    JOINT rShin
    {
      OFFSET 0 -46.6676 0
      CHANNELS 6 Xposition Yposition Zposition Zrotation Xrotation Yrotation
      JOINT rFoot
      {
        OFFSET 0 -40.1476 0
        CHANNELS 6 Xposition Yposition Zposition Zrotation Xrotation Yrotation
        JOINT rToes
        {
          OFFSET 0 -8.8846 14.2294
          CHANNELS 6 Xposition Yposition Zposition Zrotation Xrotation Yrotation
          End Site
          {
            OFFSET 0 0 6.296
          }
        }
      }
    }
  }
}
MOTION
Frames:	4
Frame Time:	0.0333333
-0.240055 89.6834 0.190372 -3.11892 -3.31397 -43.3142 -5.55112e-17 7.2397 0 -1.87609 6.96107 8.00873 0 16.546 0 -4.68085 15.5122 16.4777 4.44089e-16 34.2149 -7.10543e-15 0.822911 26.8719 -1.4329 -8.88178e-16 6.2923 2.84217e-14 -1.77249 -28.4558 19.5395 4.0639 26.6115 -1.1234 -1.67526 -3.43236 4.1661 14.1772 -2.84217e-14 0 -69.6995 -1.29332 -3.24548 26.1234 0 0 3.37925 5.75605 -48.0545 27.7188 0 -7.10543e-15 14.0781 12.1068 -1.83617 2.2979 -0.4685 1.8313 61.4413 74.0275 -94.4787 5.2953 -7.10543e-15 0 0.217322 3.0222 0.809971 3.0181 0 0 12.4883 -0.000108179 -1.55937e-06 9.3793 0.2991 2.5924 0.51692 -1.66004 -8.48307 4.3461 1.42109e-14 0 -16.2535 -0.162194 2.44365 2.1666 1.42109e-14 0 -2.1684 3.79627e-06 -5.13813e-06 9.4769 0.8376 0.2947 -7.79018 -4.31128 9.25418 4.772 0 0 -21.8661 -0.382323 1.62393 2.8722 0 -7.10543e-15 3.95741 0.0711029 0.399404 8.6586 1.0176 -1.7016 -24.6571 -2.57693 14.8856 4.5461 0 -3.55271e-15 -32.0638 0.646751 -1.53635 2.506 3.55271e-15 0 6.76051 3.9472e-06 -9.18624e-05 7.6901 0.6618 -3.9096 -23.6524 -14.8542 19.2867 3.2119 -7.10543e-15 3.55271e-15 -39.5974 0.0765914 3.58029 1.924 3.55271e-15 0 4.41309 -7.33376e-06 -5.03774e-06 -4.0677 26.6109 -1.1234 5.14986 -2.73523 4.26975 -14.1772 -2.84217e-14 -3.55271e-15 61.2579 -12.0883 -21.3763 -26.1234 2.84217e-14 -1.42109e-14 6.56062 -1.04822 42.1904 -27.7188 0 1.77636e-15 17.4121 5.73537 8.30915 -2.2979 -0.4684 1.8313 -37.3107 60.5987 62.8334 -5.2953 0 1.77636e-15 19.9691 1.42546 -7.53378 -3.0181 0 -2.66454e-15 -12.4883 -9.70263e-05 0.00011128 -9.3793 0.2991 2.5924 -0.59361 -2.45697 0.288462 -4.3461 -7.10543e-15 0 16.741 -0.163112 -2.82116 -2.1666 3.55271e-15 -7.10543e-15 2.16819 3.02639e-06 3.45788e-06 -9.4769 0.8376 0.2947 7.28753 -5.19963 -1.95097 -4.772 0 -7.10543e-15 30.498 -0.7627 -2.54439 -2.8722 7.10543e-15 0 -3.9575 0.070997 -0.399398 -8.6586 1.0176 -1.7016 16.1818 2.37931 -7.76457 -4.5461 3.55271e-15 0 37.4824 1.09077 2.38361 -2.506 0 -1.77636e-15 -6.7605 -9.06625e-07 -2.83568e-06 -7.6901 0.6618 -3.9096 16.3078 -9.18073 -10.9123 -3.2119 -3.55271e-15 0 41.6956 0.74315 -1.951 -1.924 7.10543e-15 0 -4.41301 6.73177e-07 3.48786e-06 8.7379 -0.0029 0.0005 14.8427 -23.181 20.5076 1.77636e-15 -46.6676 0 7.41287 38.9914 -16.9933 -3.55271e-15 -40.1476 -1.77636e-15 -7.89361 -10.3042 7.22879 0 -8.8846 14.2294 0.0001 -4.96962e-17 3.18055e-15 -8.7379 0.0029 -0.0005 -15.021 -0.625181 -22.5897 0 -46.6676 0 -4.68011 38.6316 -7.71091 3.55271e-15 -40.1476 0 20.9737 -23.8206 -3.40873 -3.55271e-15 -8.8846 14.2294 -9.93923e-17 -9.31803e-18 3.97569e-16 
-0.22632 89.6829 0.190772 -3.06064 -3.28369 -43.4297 -2.77556e-17 7.2397 -8.88178e-16 -1.90046 6.95076 7.97704 0 16.546 -8.88178e-16 -4.71968 15.4896 16.4172 4.44089e-16 34.2149 0 0.731229 26.7949 -1.36175 8.88178e-16 6.2923 0 -1.94119 -28.3728 19.795 4.0639 26.6115 -1.1234 -1.68979 -3.43082 4.15556 14.1772 0 0 -69.6652 -1.29187 -3.21361 26.1234 -7.10543e-15 0 3.38539 5.7665 -48.1213 27.7188 0 0 14.0292 12.1047 -1.82672 2.2979 -0.4685 1.8313 61.5112 74.4054 -94.4016 5.2953 0 0 -0.248256 3.00935 0.941864 3.0181 7.10543e-15 -7.10543e-15 12.4883 -0.000108179 -1.55937e-06 9.3793 0.2991 2.5924 0.187613 -1.60174 -8.46116 4.3461 0 -7.10543e-15 -16.5936 -0.176782 2.43511 2.1666 0 0 -2.1684 3.79627e-06 -5.13813e-06 9.4769 0.8376 0.2947 -8.13596 -4.36754 9.25219 4.772 0 0 -22.1931 -0.389911 1.63535 2.8722 -7.10543e-15 0 3.95741 0.0711029 0.399404 8.6586 1.0176 -1.7016 -24.9949 -2.66763 14.8572 4.5461 0 0 -32.4017 0.655337 -1.54775 2.506 0 -3.55271e-15 6.76051 3.9472e-06 -9.18624e-05 7.6901 0.6618 -3.9096 -23.9746 -14.9671 19.2594 3.2119 -7.10543e-15 3.55271e-15 -39.9085 0.0565412 3.64735 1.924 -3.55271e-15 3.55271e-15 4.41309 -7.33376e-06 -5.03774e-06 -4.0677 26.6109 -1.1234 5.16141 -2.74021 4.31599 -14.1772 0 -7.10543e-15 61.2711 -12.0687 -21.3127 -26.1234 1.42109e-14 -1.42109e-14 6.54891 -1.04009 42.0113 -27.7188 0 -1.77636e-15 17.2714 5.76167 8.18057 -2.2979 -0.4684 1.8313 -37.2132 60.8267 62.9112 -5.2953 -7.10543e-15 1.77636e-15 19.978 1.44603 -7.51026 -3.0181 7.10543e-15 2.66454e-15 -12.4883 -9.70263e-05 0.00011128 -9.3793 0.2991 2.5924 -0.808496 -2.45632 0.285175 -4.3461 0 -1.06581e-14 16.5652 -0.15445 -2.822 -2.1666 0 3.55271e-15 2.16819 3.02639e-06 3.45788e-06 -9.4769 0.8376 0.2947 7.06486 -5.19202 -1.95464 -4.772 -7.10543e-15 3.55271e-15 30.2744 -0.753157 -2.52953 -2.8722 -1.77636e-15 3.55271e-15 -3.9575 0.070997 -0.399398 -8.6586 1.0176 -1.7016 15.9526 2.40595 -7.76854 -4.5461 0 1.77636e-15 37.245 1.08121 2.37301 -2.506 0 -1.77636e-15 -6.7605 -9.06625e-07 -2.83568e-06 -7.6901 0.6618 -3.9096 16.0768 -9.13492 -10.9263 -3.2119 3.55271e-15 0 41.4629 0.754029 -1.91254 -1.924 0 3.55271e-15 -4.41301 6.73177e-07 3.48786e-06 8.7379 -0.0029 0.0005 14.7999 -23.2109 20.4781 1.77636e-15 -46.6676 0 7.45716 38.9784 -16.8614 0 -40.1476 0 -7.98636 -10.3207 7.21667 0 -8.8846 14.2294 0.0001 9.93923e-17 6.36111e-15 -8.7379 0.0029 -0.0005 -15.0242 -0.75602 -22.6021 7.10543e-15 -46.6676 0 -4.84409 38.6482 -7.5439 0 -40.1476 -1.77636e-15 21.0074 -23.8118 -3.40544 -3.55271e-15 -8.8846 14.2294 -9.93923e-17 -1.2424e-17 3.97569e-16 
-0.212586 89.6825 0.191172 -3.00225 -3.25367 -43.5452 0 7.2397 0 -1.92483 6.94045 7.94534 0 16.546 0 -4.75857 15.467 16.3566 -1.11022e-15 34.2149 0 0.639761 26.7179 -1.2907 0 6.2923 1.42109e-14 -2.11057 -28.2895 20.0501 4.0639 26.6115 -1.1234 -1.70431 -3.42927 4.14502 14.1772 -5.68434e-14 -7.10543e-15 -69.6309 -1.29041 -3.18174 26.1234 0 -3.55271e-15 3.39156 5.7769 -48.1882 27.7188 1.42109e-14 0 13.9803 12.1025 -1.81727 2.2979 -0.4685 1.8313 61.5771 74.7833 -94.32 5.2953 0 0 -0.713775 2.99648 1.07375 3.0181 -7.10543e-15 0 12.4883 -0.000108179 -1.55937e-06 9.3793 0.2991 2.5924 -0.141739 -1.54344 -8.43926 4.3461 0 -7.10543e-15 -16.9336 -0.19137 2.42657 2.1666 0 0 -2.1684 3.79627e-06 -5.13813e-06 9.4769 0.8376 0.2947 -8.48174 -4.4238 9.25021 4.772 0 0 -22.5201 -0.397499 1.64677 2.8722 0 0 3.95741 0.0711029 0.399404 8.6586 1.0176 -1.7016 -25.3329 -2.75835 14.8289 4.5461 1.42109e-14 7.10543e-15 -32.7395 0.663924 -1.55916 2.506 3.55271e-15 7.10543e-15 6.76051 3.9472e-06 -9.18624e-05 7.6901 0.6618 -3.9096 -24.2969 -15.08 19.2321 3.2119 -7.10543e-15 0 -40.2197 0.0364939 3.71442 1.924 -7.10543e-15 0 4.41309 -7.33376e-06 -5.03774e-06 -4.0677 26.6109 -1.1234 5.17297 -2.74519 4.36224 -14.1772 0 3.55271e-15 61.2843 -12.0491 -21.2492 -26.1234 0 -7.10543e-15 6.53725 -1.03189 41.8322 -27.7188 1.42109e-14 1.77636e-15 17.1307 5.78795 8.05198 -2.2979 -0.4684 1.8313 -37.1173 61.0548 62.991 -5.2953 0 -1.77636e-15 19.9869 1.46661 -7.48674 -3.0181 -7.10543e-15 8.88178e-16 -12.4883 -9.70263e-05 0.00011128 -9.3793 0.2991 2.5924 -1.02338 -2.45567 0.281888 -4.3461 7.10543e-15 -3.55271e-15 16.3894 -0.145788 -2.82285 -2.1666 0 0 2.16819 3.02639e-06 3.45788e-06 -9.4769 0.8376 0.2947 6.8422 -5.18442 -1.95832 -4.772 0 -1.06581e-14 30.0508 -0.743614 -2.51467 -2.8722 0 -3.55271e-15 -3.9575 0.070997 -0.399398 -8.6586 1.0176 -1.7016 15.7235 2.43258 -7.77252 -4.5461 3.55271e-15 1.77636e-15 37.0076 1.07165 2.36241 -2.506 0 0 -6.7605 -9.06625e-07 -2.83568e-06 -7.6901 0.6618 -3.9096 15.8458 -9.08911 -10.9403 -3.2119 -3.55271e-15 -5.32907e-15 41.2301 0.764907 -1.87408 -1.924 0 0 -4.41301 6.73177e-07 3.48786e-06 8.7379 -0.0029 0.0005 14.7571 -23.2409 20.4486 0 -46.6676 7.10543e-15 7.50155 38.9652 -16.7295 0 -40.1476 0 -8.07911 -10.3371 7.20455 3.55271e-15 -8.8846 14.2294 0.0001 4.96962e-17 6.36111e-15 -8.7379 0.0029 -0.0005 -15.0276 -0.886836 -22.6146 0 -46.6676 0 -5.00817 38.6646 -7.37681 3.55271e-15 -40.1476 3.55271e-15 21.0412 -23.8031 -3.40214 0 -8.8846 14.2294 -2.15523e-35 -3.10601e-18 -3.97569e-16 
-0.199419 89.6798 0.191518 -2.94553 -3.22015 -43.6471 0 7.2397 0 -1.94327 6.93257 7.89932 0 16.546 -8.88178e-16 -4.78628 15.4504 16.2663 -4.44089e-16 34.2149 -7.10543e-15 0.541202 26.6413 -1.20092 0 6.2923 -1.42109e-14 -2.30594 -28.2149 20.3321 4.0639 26.6115 -1.1234 -1.70887 -3.42856 4.13484 14.1772 2.84217e-14 3.55271e-15 -69.6085 -1.28898 -3.14903 26.1234 0 0 3.40003 5.78851 -48.2572 27.7188 1.42109e-14 0 13.9499 12.1012 -1.81004 2.2979 -0.4685 1.8313 61.6928 75.1714 -94.2937 5.2953 7.10543e-15 0 -1.17206 2.98343 1.21224 3.0181 1.42109e-14 -7.10543e-15 12.4883 -0.000108179 -1.55937e-06 9.3793 0.2991 2.5924 -0.461331 -1.4884 -8.42103 4.3461 1.42109e-14 0 -17.2623 -0.205392 2.41829 2.1666 0 -7.10543e-15 -2.1684 3.79627e-06 -5.13813e-06 9.4769 0.8376 0.2947 -8.81734 -4.47808 9.24821 4.772 -1.42109e-14 0 -22.838 -0.404966 1.65789 2.8722 0 0 3.95741 0.0711029 0.399404 8.6586 1.0176 -1.7016 -25.6566 -2.84463 14.7994 4.5461 -7.10543e-15 0 -33.0658 0.672259 -1.57023 2.506 3.55271e-15 -3.55271e-15 6.76051 3.9472e-06 -9.18624e-05 7.6901 0.6618 -3.9096 -24.6107 -15.1891 19.2081 3.2119 -7.10543e-15 0 -40.5264 0.0165866 3.78052 1.924 -5.32907e-15 0 4.41309 -7.33376e-06 -5.03774e-06 -4.0677 26.6109 -1.1234 5.18884 -2.75036 4.40912 -14.1772 0 -3.55271e-15 61.2818 -12.0249 -21.194 -26.1234 0 7.10543e-15 6.5298 -1.01622 41.6618 -27.7188 0 -1.77636e-15 16.9947 5.80543 7.92156 -2.2979 -0.4684 1.8313 -37.0256 61.2854 63.082 -5.2953 -2.13163e-14 7.10543e-15 19.9988 1.48309 -7.46341 -3.0181 -7.10543e-15 -8.88178e-16 -12.4883 -9.70263e-05 0.00011128 -9.3793 0.2991 2.5924 -1.24694 -2.45487 0.278009 -4.3461 7.10543e-15 1.06581e-14 16.1965 -0.13621 -2.82374 -2.1666 -7.10543e-15 -3.55271e-15 2.16819 3.02639e-06 3.45788e-06 -9.4769 0.8376 0.2947 6.61545 -5.17671 -1.96008 -4.772 0 3.55271e-15 29.8164 -0.733539 -2.49993 -2.8722 1.77636e-15 0 -3.9575 0.070997 -0.399398 -8.6586 1.0176 -1.7016 15.4966 2.46242 -7.77998 -4.5461 3.55271e-15 0 36.7638 1.06172 2.35202 -2.506 1.06581e-14 -1.77636e-15 -6.7605 -9.06625e-07 -2.83568e-06 -7.6901 0.6618 -3.9096 15.6036 -9.04103 -10.9547 -3.2119 0 0 40.9897 0.775468 -1.83416 -1.924 -7.10543e-15 3.55271e-15 -4.41301 6.73177e-07 3.48786e-06 8.7379 -0.0029 0.0005 14.7134 -23.2824 20.4127 0 -46.6676 7.10543e-15 7.55675 38.9603 -16.609 0 -40.1476 0 -8.17266 -10.3576 7.19014 0 -8.8846 14.2294 0.0001 -4.96962e-17 -0 -8.7379 0.0029 -0.0005 -15.0247 -1.01598 -22.6253 0 -46.6676 0 -5.16831 38.6844 -7.22662 0 -40.1476 -4.44089e-16 21.0798 -23.7951 -3.39677 0 -8.8846 14.2294 9.93923e-17 -1.86361e-17 3.97569e-16 
